# xmcd
#
# Track frame offsets: 
#        150
#        22392
#        44775
#        66587
#        86525
#        96281
#        106466
#        113566
#        126155
#        133011
#        142131
#        149645
#        156947
#        163399
#        170364
#        179115
#        186458
#        193331
#        198993
#        205973
#        215286
#        224481
#        231349
#        238249
#        247520
#        254379
#        261189
#        268514
#        278536
#        289444
#        299351
#
# Disc length: 4116 seconds
#
# Revision: 0
# Processed by: cddbd v1.5.2PL0 Copyright (c) Steve Scherf et al.
# Submitted via: ExactAudioCopy v1.0b3
#
DISCID=0f10121f
DTITLE=大宇科技 - 仙劍奇俠傳五前傳音樂
DYEAR=2013
DGENRE=Game
TTITLE0=蕭人鳳 - 牽絆
TTITLE1=蕭人鳳 - 有情燕
TTITLE2=霏霏 - 只因有你
TTITLE3=徐顥菲 - 仙劍夢緣
TTITLE4=多位演唱者 - 夢影難捨
TTITLE5=多位演唱者 - 燕歸來
TTITLE6=多位演唱者 - 芳春頌
TTITLE7=多位演唱者 - 聲聲慢
TTITLE8=多位演唱者 - 清和風
TTITLE9=多位演唱者 - 蒼山別舊
TTITLE10=多位演唱者 - 關河碎影
TTITLE11=多位演唱者 - 朔語懷刃
TTITLE12=多位演唱者 - 蒼雷驚弦
TTITLE13=多位演唱者 - 風雲亂
TTITLE14=多位演唱者 - 殤別離
TTITLE15=多位演唱者 - 醉瑤瑟
TTITLE16=多位演唱者 - 杏花天
TTITLE17=多位演唱者 - 金錯刀
TTITLE18=多位演唱者 - 孤煙寂
TTITLE19=多位演唱者 - 塞上秋
TTITLE20=多位演唱者 - 海晏天青
TTITLE21=多位演唱者 - 風入松
TTITLE22=多位演唱者 - 子夜歌
TTITLE23=多位演唱者 - 靜海閒潮
TTITLE24=多位演唱者 - 春草碧
TTITLE25=多位演唱者 - 遠山橫
TTITLE26=多位演唱者 - 定風波
TTITLE27=多位演唱者 - 九霄倚虹
TTITLE28=多位演唱者 - 浮雲奔浪
TTITLE29=多位演唱者 - 劍器近
TTITLE30=多位演唱者 - 止水盪
EXTD=
EXTT0=
EXTT1=
EXTT2=
EXTT3=
EXTT4=
EXTT5=
EXTT6=
EXTT7=
EXTT8=
EXTT9=
EXTT10=
EXTT11=
EXTT12=
EXTT13=
EXTT14=
EXTT15=
EXTT16=
EXTT17=
EXTT18=
EXTT19=
EXTT20=
EXTT21=
EXTT22=
EXTT23=
EXTT24=
EXTT25=
EXTT26=
EXTT27=
EXTT28=
EXTT29=
EXTT30=
PLAYORDER=
